<svg id="Layer_1" data-name="Layer 1" xmlns="http://www.w3.org/2000/svg" viewBox="0 0 720 720"><defs><style>.cls-1{fill:#574547;}.cls-2{fill:#159b49;}</style></defs><path class="cls-1" d="M248.78,554.08v3.19H227.6V536h20.88v3.19H231.21v6.6h14.53v3.16H231.21v5.14Z"/><path class="cls-1" d="M269.33,546.51l9.91,10.76h-4.59L267,549l-7.69,8.27h-4.38l9.88-10.73L255,536h4.59l7.57,8.15,7.54-8.15h4.41Z"/><path class="cls-1" d="M324.26,536v21.28h-3.65V540.94l-10.12,12.29h-.22l-10.12-12.29v16.33h-3.53V536h4l9.88,12.19L320.33,536Z"/><path class="cls-1" d="M350.46,552.13H336.81l-2.71,5.14h-4L341.67,536h4l11.49,21.28h-4Zm-1.62-3.1-5.19-9.85-5.2,9.85Z"/><path class="cls-1" d="M381.31,550.92l3.37,1.67c-2,3.1-5.9,5.32-11.28,5.32-8,0-13-4.29-13-11.28s5-11.28,13.14-11.28c5.22,0,9.12,2.25,11.09,5.29l-3.4,1.7c-1.58-2.61-4.29-3.77-7.75-3.77-5.63,0-9.37,2.74-9.37,8.06s3.74,8.06,9.37,8.06C377,554.69,379.7,553.56,381.31,550.92Z"/><path class="cls-1" d="M414.77,536v21.28h-3.64v-9.15H395v9.15H391.4V536H395v8.85h16.09V536Z"/><path class="cls-1" d="M423.62,557.27V536h3.64v21.28Z"/><path class="cls-1" d="M459.49,536v21.28h-3.23l-16.62-16.78v16.78h-3.53V536H440l15.93,16.14V536Z"/><path class="cls-1" d="M485.69,552.13H472l-2.71,5.14h-3.95L476.9,536h4l11.49,21.28h-4Zm-1.62-3.1-5.19-9.85-5.2,9.85Z"/><rect class="cls-2" x="227.6" y="160.09" width="264.81" height="7.5"/><polygon class="cls-2" points="492.4 184.95 384.67 190.48 227.6 188.51 227.6 181.01 363.75 177.46 492.4 177.46 492.4 184.95"/><polygon class="cls-2" points="492.4 204.29 385.45 209.82 227.6 209.82 227.6 202.32 360 195.61 492.4 196.79 492.4 204.29"/><polygon class="cls-2" points="492.4 224.42 389.4 235.47 227.6 237.84 227.6 227.97 353.88 216.92 492.4 216.92 492.4 224.42"/><polygon class="cls-2" points="492.4 257.7 381.64 271.51 227.6 271.51 227.6 258.49 354.28 245.2 492.4 243.89 492.4 257.7"/><polygon class="cls-2" points="492.4 300.65 367.3 323.08 227.6 321.67 227.6 302.37 354.28 280.85 492.4 280.85 492.4 300.65"/><polygon class="cls-2" points="492.4 355.38 367.3 385.17 227.6 385.17 227.6 357.19 353.49 330.45 492.4 330.45 492.4 355.38"/><path class="cls-1" d="M306.3,498.9c-6,9.69-19.11,16.75-37.19,16.75-26,0-41.51-13.17-41.51-34.92s15.53-34.93,41.33-34.93c16.19,0,27.3,6,33.89,13.08l-9.23,6.6c-5.83-6.6-13.56-9.8-24.57-9.8-18.55,0-29.94,8.48-29.94,25.05s11.58,25,30.5,25c11.59,0,21-3,25.8-10.55v-7.53H267.89V478H306.3Z"/><path class="cls-1" d="M394.69,503.79v9.89H329.07v-65.9h64.68v9.88H340.27v17.61h45v9.88h-45v18.64Z"/><path class="cls-1" d="M410.5,480.73c0-21.75,15.63-34.93,40.95-34.93S492.4,459,492.4,480.73s-15.62,34.92-40.95,34.92S410.5,502.48,410.5,480.73Zm70.32,0c0-16-11.48-25-29.37-25s-29.47,8.94-29.47,25,11.49,24.95,29.47,24.95S480.82,496.73,480.82,480.73Z"/></svg>